<svg width="49" height="48" viewBox="0 0 49 48" fill="none" xmlns="http://www.w3.org/2000/svg">
<path d="M28.7526 34.1929C28.7526 34.1929 27.7528 35.1928 27.9066 36.2692C28.0605 37.3455 28.2159 38.1149 28.2159 38.1149C28.0612 38.4709 28.0338 38.8694 28.1386 39.2431C28.1386 39.2431 28.8817 39.0552 29.0866 39.854H27.1372C27.1372 39.854 27.3422 38.0639 27.1372 37.5257C26.9323 36.9875 26.6501 36.1926 27.0089 34.0391L28.7526 34.1929Z" fill="#3A1908"/>
<path d="M19.4479 34.4743C19.4479 34.4743 19.9606 35.3202 19.4479 36.0378C19.1237 36.4816 18.7141 36.8562 18.2432 37.1397L19.2685 39.8531H20.6271C20.6271 39.8531 20.6758 39.1138 19.7557 39.2391C19.7557 39.2391 18.9105 38.547 19.4355 37.6493C19.9606 36.7515 21.1908 36.9572 21.8064 35.471C22.4219 33.9848 21.8064 32.2852 21.8064 32.2852L19.4479 34.4743Z" fill="#3A1908"/>
<path d="M17.6985 31.9553C17.6985 31.9553 17.2949 34.0122 16.7049 34.8311C16.3805 35.3017 16.0864 35.7924 15.8241 36.3003C15.8059 36.3339 15.8003 36.3728 15.8082 36.4102C15.8161 36.4476 15.837 36.4809 15.8672 36.5043C15.8974 36.5276 15.935 36.5395 15.9732 36.5376C16.0113 36.5358 16.0476 36.5205 16.0755 36.4944C16.558 36.0614 17.2771 35.2835 17.9614 34.0331C19.1407 31.885 17.6985 31.9553 17.6985 31.9553Z" fill="#3A1908"/>
<path d="M27.625 25.1445C27.625 25.1445 26.728 23.9397 26.138 23.4271C25.548 22.9144 25.2155 22.9631 25.0617 23.0675C24.9078 23.1719 25.5256 25.9904 25.5743 26.3229C25.623 26.6554 26.8378 26.9415 26.8378 26.9415L27.625 25.1445Z" fill="#3A1908"/>
<path d="M29.877 25.4255C29.877 25.4255 30.7739 24.2208 31.3632 23.7081C31.9524 23.1954 32.2864 23.2442 32.4403 23.3493C32.5942 23.4545 31.9764 26.2715 31.9276 26.6048C31.8789 26.938 30.6641 27.2195 30.6641 27.2195L29.877 25.4255Z" fill="#3A1908"/>
<path d="M29.4765 31.9551C29.0659 31.9551 28.9747 32.7059 28.4751 33.115C28.4751 32.7051 28.3599 31.9489 28.155 31.5391C27.4212 33.7405 24.8508 34.6793 22.8906 34.5548C23.1681 34.6467 23.4398 34.7554 23.7041 34.8803C25.0364 35.5206 25.5236 35.7773 26.8822 35.7008C27.8704 35.6443 28.9252 34.5409 29.5059 33.0461C29.4386 32.8985 29.625 32.0672 29.4765 31.9551Z" fill="#3A1908"/>
<path d="M28.9061 24.7299C27.9859 24.6619 26.676 25.2426 26.2662 26.7288C25.8564 28.215 25.8308 28.4911 25.8308 28.4911C25.8308 28.4911 23.7283 29.2388 21.8099 29.4437C19.8914 29.6486 18.2722 29.9077 17.5291 32.4687C17.5291 32.4687 17.3744 34.4166 17.5291 35.7752C17.5066 36.0228 17.425 36.2614 17.2913 36.471C17.1576 36.6807 16.9755 36.8552 16.7605 36.9799L16.4512 39.8511H17.9869C17.9869 39.8511 17.9614 38.9541 17.0899 39.0306C17.0899 39.0306 17.1672 37.5437 18.1152 36.7495C19.0633 35.9554 20.3964 33.9812 20.3964 33.9812C21.2423 34.1006 22.0766 34.2918 22.8901 34.5527C24.8511 34.6772 27.2243 34.4452 27.9581 32.2445C28.163 32.6543 28.163 33.0649 28.163 33.4747C28.7816 33.4747 28.7816 32.6543 29.1883 32.6543C29.3258 32.7557 29.435 32.8907 29.5054 33.0464C29.7316 32.4675 29.8751 31.8597 29.9315 31.2408C30.1371 28.9079 30.7774 28.0109 30.8547 26.6523C30.9321 25.2936 29.9546 24.8065 28.9061 24.7299Z" fill="#3A1908"/>
<path d="M26.8372 33.791C26.8372 33.791 25.2374 35.1929 25.392 36.2693C25.5467 37.3457 25.7013 38.1151 25.7013 38.1151C25.547 38.4701 25.5197 38.8674 25.624 39.2402C25.624 39.2402 26.3679 39.0523 26.5728 39.8511H24.6242C24.6242 39.8511 24.8299 38.061 24.6242 37.5228C24.4185 36.9846 24.1378 36.1897 24.4966 34.0361L26.8372 33.791Z" fill="#3A1908"/>
<path d="M28.906 24.7302C28.906 24.7302 28.5727 25.4602 28.0779 25.7679C28.2071 25.8848 28.3106 26.0272 28.382 26.1861C28.4533 26.345 28.4909 26.517 28.4923 26.6912C28.4923 26.6912 27.2551 27.3098 27.2404 28.4341C27.0475 28.3974 26.8741 28.2927 26.7518 28.1391C26.6295 27.9854 26.5663 27.7929 26.5739 27.5967C26.5739 26.869 26.3311 26.4515 26.3311 26.4515C26.3311 26.4515 26.9497 24.666 28.906 24.7302Z" fill="#3A1908"/>
<path d="M29.1543 24.7246C29.1543 24.7246 29.445 25.2381 29.7868 25.5288C29.9401 25.6667 30.1041 25.7924 30.2771 25.9046C30.1488 25.8878 30.019 25.921 29.9145 25.9973C29.81 26.0736 29.7388 26.1871 29.7157 26.3144C29.5981 26.7931 30.257 27.2887 30.2771 27.4937C30.2972 27.6986 30.0088 28.1602 30.0088 28.1602C30.0088 28.1602 30.1456 28.1602 30.0938 28.4339C30.042 28.7077 29.4273 28.8608 29.4273 28.8608C29.4273 28.8608 29.5657 29.2412 30.2229 29.4098C30.2229 29.4098 30.7689 27.6816 30.8586 26.8449C30.9483 26.0082 30.8972 24.9628 29.1543 24.7246Z" fill="#3A1908"/>
<path d="M29.3934 27.5625C29.34 27.7031 29.2572 27.8307 29.1505 27.9367C29.0439 28.0427 28.9158 28.1247 28.7748 28.1772C28.4791 28.2988 28.1473 28.2988 27.8516 28.1772C27.8516 28.1772 28.283 28.5546 29.2705 28.0922C29.4971 28.2274 29.7526 28.307 30.0159 28.3242C30.0159 28.3242 29.6293 28.1796 29.4746 27.9445C29.32 27.7094 29.3934 27.5625 29.3934 27.5625Z" fill="#3A1908"/>
<path d="M21.8061 29.4459C21.0963 29.5232 20.4282 29.6052 19.8304 29.8078C19.4044 30.2207 19.3441 30.8633 19.9418 31.185C20.5395 31.5066 21.4489 30.4063 22.499 29.3516C22.2678 29.3887 22.0358 29.4188 21.8061 29.4459Z" fill="#3A1908"/>
<path d="M23.9231 34.2408C25.1711 33.8673 24.0561 30.3992 24.8317 28.8086C24.2981 28.9632 23.6006 29.1465 22.8676 29.2849C22.0673 30.6652 22.6774 34.6135 23.9231 34.2408Z" fill="#3A1908"/>
<path d="M29.3131 27.563C29.3131 27.563 28.9396 27.2537 28.9102 27.1416C28.8808 27.0295 29.0131 26.8926 29.3742 26.8833C29.7353 26.8741 29.8551 26.9885 29.8907 27.1153C29.9263 27.2421 29.5335 27.563 29.5335 27.563H29.3131Z" fill="#3A1908"/>
<path d="M29.3126 27.1093C29.2839 27.0235 29.0342 27.0235 29.0342 27.1093C29.0342 27.1951 29.1811 27.2191 29.1811 27.2191L29.2275 27.4859C29.2778 27.53 29.3141 27.5632 29.3141 27.5632H29.3187C29.3311 27.412 29.329 27.2601 29.3126 27.1093Z" fill="#3A1908"/>
<path d="M29.767 27.1093C29.767 27.0235 29.5173 27.0235 29.4887 27.1093C29.4729 27.2588 29.4714 27.4095 29.484 27.5593H29.5335L29.5683 27.53L29.6217 27.2206C29.6217 27.2206 29.767 27.1959 29.767 27.1093Z" fill="#3A1908"/>
<path d="M27.7568 26.9375C27.9763 26.9375 28.1543 26.7595 28.1543 26.54C28.1543 26.3205 27.9763 26.1426 27.7568 26.1426C27.5373 26.1426 27.3594 26.3205 27.3594 26.54C27.3594 26.7595 27.5373 26.9375 27.7568 26.9375Z" fill="#3A1908"/>
<path d="M30.2773 26.9375C30.4968 26.9375 30.6748 26.7595 30.6748 26.54C30.6748 26.3205 30.4968 26.1426 30.2773 26.1426C30.0578 26.1426 29.8799 26.3205 29.8799 26.54C29.8799 26.7595 30.0578 26.9375 30.2773 26.9375Z" fill="#3A1908"/>
</svg>
