<svg width="49" height="48" viewBox="0 0 49 48" fill="none" xmlns="http://www.w3.org/2000/svg">
<g clip-path="url(#clip0_500_18147)">
<path d="M3.53436 28.3264C4.37611 28.2694 4.91097 28.3264 5.90178 28.2782C7.6595 28.0961 9.32388 27.3974 10.6849 26.2703C12.5262 24.7709 12.9602 24.0212 12.9602 24.0212C13.441 23.1758 14.2003 22.5235 15.1084 22.1755C18.0546 20.6542 24.714 18.8304 25.0867 18.7691C25.4593 18.7077 27.2481 18.3087 28.5633 18.0851C29.8785 17.8615 34.0917 16.4323 34.951 15.8931C35.8102 15.3538 38.3267 12.0657 38.5065 11.9474C38.296 9.96574 39.1816 8.08057 39.3833 8.00166C39.585 7.92274 39.8217 10.6891 40.6503 10.8206C41.2071 10.8206 41.7639 11.4432 42.2768 11.509C42.8508 11.6709 43.3675 11.9916 43.7674 12.434C43.9407 12.8044 44.0873 13.1868 44.2058 13.5783L47.2353 14.4551C47.3896 14.4998 47.523 14.598 47.6114 14.7322C47.6998 14.8664 47.7374 15.0278 47.7175 15.1872C47.6518 15.7484 45.92 17.0242 45.92 17.0242C45.9631 17.0159 46.0075 17.0178 46.0498 17.0295C46.0921 17.0412 46.131 17.0626 46.1637 17.0918C46.1964 17.1211 46.2219 17.1575 46.2381 17.1983C46.2544 17.239 46.2611 17.2829 46.2576 17.3267C46.2576 17.6774 45.7315 17.8221 45.3545 17.8352C44.9774 17.8484 42.6013 17.7212 42.2856 17.9624C41.9699 18.2035 41.3781 19.602 41.3474 20.5928C41.3474 20.9743 41.2904 21.1102 40.909 21.7239C40.9923 21.9782 41.1282 23.0874 40.5714 23.6442C40.7643 22.6709 40.3259 22.6709 40.3259 22.6709C40.3259 22.6709 40.3697 23.8196 39.8875 24.3763C39.8875 23.8897 39.9445 23.5872 39.791 23.4776C39.4792 23.858 39.2668 24.31 39.1729 24.7928C39.0478 25.5882 38.6568 26.3176 38.0637 26.8621C37.3273 27.2475 36.7341 27.8591 36.3714 28.607C36.0087 29.3519 35.7957 30.1607 35.7445 30.9876C35.7445 32.1143 35.6217 35.0604 35.6217 35.0604C35.6217 35.0604 35.8716 36.4371 35.9944 36.7527C36.1171 37.0684 35.9242 37.9277 37.6165 38.1293C38.0662 38.0753 38.5204 38.1841 38.8967 38.4362C39.0768 38.599 39.1939 38.8199 39.2276 39.0604C39.2613 39.3008 39.2093 39.5455 39.0808 39.7514C39.0326 39.2604 39.037 39.0631 38.6029 38.7869C38.3081 38.6146 37.9606 38.5554 37.6253 38.6203C38.1514 38.7957 38.6292 38.8045 38.5854 39.7032C38.5854 40.0233 38.1075 40.1416 38.1075 40.1416C38.1075 40.1416 35.6305 40.3214 35.0781 39.9137C34.5257 39.5059 34.2013 38.16 33.9908 37.9715C33.7804 37.783 33.3025 37.4717 33.3025 37.2832V36.4984L33.057 34.9815C33.057 34.9815 32.965 35.2709 32.0881 35.2972C32.496 34.9616 32.7787 34.4982 32.8904 33.9819C32.8042 34.1085 32.6903 34.2137 32.5574 34.2897C32.4245 34.3656 32.276 34.4103 32.1232 34.4204C32.3166 34.2233 32.4671 33.9884 32.5651 33.7303C32.6632 33.4723 32.7068 33.1967 32.6931 32.921C32.5923 32.3028 32.5134 31.7724 32.4871 31.5268C32.4174 31.06 32.2151 30.623 31.9042 30.2678C31.5933 29.9126 31.187 29.6542 30.7334 29.5233C30.5916 29.48 30.4423 29.4666 30.295 29.4838C29.085 29.3874 29.2253 29.8258 29.5234 29.988C29.3981 29.9813 29.2761 29.9453 29.1672 29.8829C29.0583 29.8204 28.9656 29.7333 28.8965 29.6285C28.6203 29.76 28.7474 29.9442 28.8965 30.1195C28.5326 30.0187 28.3967 29.8872 28.3529 29.6811C28.0854 29.782 28.1512 30.0275 28.4142 30.1678C28.2889 30.1639 28.1661 30.1315 28.0552 30.073C27.9442 30.0145 27.8481 29.9314 27.7742 29.8302C27.7391 29.8302 27.4103 29.8302 27.2042 29.8302C27.0771 29.8302 26.3888 29.668 26.3888 29.668C26.3888 29.668 26.1959 29.7557 26.5334 30.1678C26.1399 30.0484 25.7715 29.8582 25.4462 29.6066C25.4462 29.6066 25.6785 30.3782 25.9986 30.4089C24.8236 30.2949 24.3721 29.0454 24.3721 29.0454C24.3721 29.0454 22.9911 31.4962 22.5746 31.8951C22.1581 32.2941 21.198 32.8245 20.9437 33.0876C20.2335 33.868 19.9967 34.7448 20.3387 35.0561C20.6807 35.3673 22.6053 36.8492 22.6053 36.8492C22.9494 36.887 23.2976 36.8587 23.6312 36.7659C23.7819 36.7101 23.9468 36.7062 24.1001 36.7546C24.2533 36.803 24.386 36.9011 24.4773 37.0333C24.5957 37.2043 24.7228 38.0592 23.6575 38.1337H21.9652C21.6495 38.1337 20.0844 36.8185 19.5846 36.3801C19.0848 35.9416 18.0414 35.1131 17.8704 34.9596C17.7754 34.8737 17.7163 34.7551 17.7049 34.6275C17.6935 34.4999 17.7307 34.3727 17.8091 34.2713C18.002 34.074 18.6464 33.184 18.8963 32.9341C19.4136 32.5264 19.6372 31.3734 19.4575 31.1191C19.041 30.2423 17.8704 29.4268 17.7696 29.4882C17.546 29.9266 17.2742 30.0582 17.0813 30.5316C17.0251 30.8396 16.898 31.1303 16.7101 31.3806C16.5221 31.631 16.2785 31.8341 15.9984 31.974C16.1482 31.7837 16.2748 31.5762 16.3754 31.3559C16.1719 31.4997 16.0027 31.6869 15.88 31.9039C15.6557 32.1909 15.3319 32.3833 14.9725 32.4431C15.2487 32.2327 15.4504 32.1318 15.5074 31.9083C15.0228 32.1953 14.5222 32.4544 14.008 32.6842C13.6573 32.8333 11.5266 33.0832 11.2504 33.2103C10.9742 33.3375 9.86503 33.7233 9.54937 34.6352C9.44853 34.9289 9.05835 37.4235 9.05835 37.4235C9.05835 37.4235 9.49676 37.6515 9.68528 37.7786C9.81352 37.8881 9.90135 38.0375 9.93473 38.2028C9.9681 38.3681 9.94511 38.5398 9.86941 38.6905C9.63705 38.9798 9.18549 38.9316 8.99259 38.9316C7.72119 38.9316 7.53267 38.1995 7.46691 37.8224C7.46937 37.4399 7.55619 37.0627 7.72119 36.7176C7.9404 36.0469 8.59802 32.3993 8.74269 32.2897C9.10657 31.9389 10.378 32.0485 10.8734 31.2901C10.9961 31.1367 11.6099 29.6373 11.8817 28.949C11.0487 29.4619 10.4262 29.8258 10.4262 29.8258C9.51657 30.3011 8.5657 30.6929 7.58528 30.9964C7.48006 31.0271 7.12057 31.1147 7.53267 31.6671C7.18194 31.5707 6.92767 31.2945 6.98466 31.1367C6.69976 31.2169 6.40274 31.2451 6.10783 31.2199C6.01577 31.2199 5.4283 31.6584 4.92851 31.6584C5.42391 31.3953 5.27924 31.2682 5.27924 31.2682C5.27924 31.2682 4.80575 31.5531 3.27569 31.5268C3.59221 31.4772 3.90142 31.3889 4.19636 31.2638C3.36791 31.2602 2.54159 31.1794 1.7281 31.0227C0.149816 30.6456 1.0661 28.4974 3.53436 28.3264Z" fill="#3A1908"/>
</g>
<defs>
<clipPath id="clip0_500_18147">
<rect width="48" height="48" fill="white" transform="translate(0.333008)"/>
</clipPath>
</defs>
</svg>
