<svg width="49" height="48" viewBox="0 0 49 48" fill="none" xmlns="http://www.w3.org/2000/svg">
<path d="M43.817 16.5486C43.7351 16.3654 43.0845 16.3654 42.7471 16.2691C42.2211 16.071 41.7223 15.8071 41.2627 15.4835C41.1759 15.3678 41.2338 14.8377 41.0651 14.5871C40.8964 14.3365 40.0289 13.8834 39.6193 13.5461C38.7834 13.1255 37.8483 12.9422 36.9155 13.0159C36.1878 13.1268 35.2046 14.081 34.5347 14.9774C33.8648 15.8739 30.1056 18.8764 29.937 18.9294C29.7683 18.9824 28.6212 19.0547 27.8116 19.2571C27.0663 19.5082 26.3046 19.7078 25.532 19.8547C24.944 19.8837 18.9149 19.8547 18.2739 19.8547C17.6329 19.8547 14.2352 20.0523 13.9364 20.1102C13.5915 20.154 13.242 20.1442 12.9002 20.0813C10.2205 19.6089 5.1312 13.8449 4.84203 14.1389C4.55286 14.4328 5.6276 16.1004 6.63969 17.1076C7.65177 18.1149 11.9074 21.6235 11.8254 21.7054C11.1732 22.2836 10.6761 23.016 10.3796 23.8356C10.0479 25.2391 9.80482 26.662 9.65185 28.096C9.62293 28.4334 8.13854 31.4696 7.46382 32.1926C6.78909 32.9155 5.31916 34.3517 5.23722 34.4336C5.05676 35.0781 4.91672 35.7332 4.81793 36.3951C4.78901 36.6072 4.5625 38.8531 4.5625 38.9735C4.63961 39.3205 4.51431 39.5856 4.98661 39.735C5.78598 39.8466 6.59697 39.8466 7.39634 39.735C7.73852 39.6049 7.53129 38.9157 7.36261 38.7711C7.1659 38.6139 6.9204 38.5303 6.6686 38.535C6.49563 38.5187 6.33455 38.4399 6.21558 38.3133C6.10473 38.2024 6.27341 37.7783 6.30233 37.6096C6.33124 37.441 6.62523 35.8891 6.70716 35.6337C7.01986 35.1874 7.37144 34.7697 7.7578 34.3854L8.49036 33.8119L7.82046 34.6457C7.79309 35.0829 7.73511 35.5178 7.64696 35.9469C7.58489 36.4022 7.57518 36.863 7.61804 37.3205C7.64696 37.4699 7.81564 37.4891 7.89757 37.6289C8.04091 37.8841 8.20195 38.1288 8.37951 38.3615C9.0234 38.3866 9.66827 38.3576 10.3073 38.2747C10.5049 38.2217 10.529 38.2169 10.529 38.0241C10.5364 37.7339 10.4735 37.4462 10.3459 37.1855C10.2061 36.9879 9.59884 37.147 9.43497 37.0265C9.27111 36.906 9.23738 36.612 9.194 36.3614C9.23453 35.631 9.3459 34.9063 9.52654 34.1975C9.7013 33.8085 9.90762 33.4346 10.1434 33.0793C10.6199 32.7014 11.1372 32.3781 11.6857 32.1154C12.5821 31.7251 15.4689 27.5755 15.9461 27.1273C17.2907 25.5754 20.3318 25.6815 21.2186 26.1634C21.4981 26.2453 24.1102 27.7056 24.5536 27.9852C25.2615 28.3208 26.0052 28.5747 26.7706 28.7418C26.9103 28.7418 27.4116 28.7997 27.4405 28.9105C27.4694 29.0214 27.5802 31.0407 27.5802 31.0407C27.5802 31.0407 27.4405 30.9636 26.8236 31.2672C26.5889 31.4046 26.4082 31.6182 26.3118 31.8725C26.2153 32.1267 26.2089 32.4064 26.2934 32.6649C26.4236 32.9251 27.5513 32.6938 27.5513 32.6938V33.0601C27.5513 33.0601 27.6911 35.1903 27.6911 35.4168C27.6177 35.9952 27.5919 36.5787 27.614 37.1614C27.6321 37.2914 27.682 37.4148 27.7594 37.5208C27.8367 37.6267 27.9391 37.7119 28.0574 37.7687C28.1152 37.8795 28.3224 38.8193 28.4381 39.0169C28.5538 39.2145 29.0261 39.8941 29.4598 39.87C29.6382 39.87 31.0213 40.0001 31.2768 39.7591C31.5322 39.5181 31.3491 38.6217 31.0936 38.4868C30.8382 38.3518 30.2165 38.4868 29.937 38.3856C29.6574 38.2844 29.455 37.1807 29.349 36.7325C29.243 36.2843 29.7683 32.8094 29.7683 32.8094C29.7683 32.8094 33.0359 31.3058 33.2142 30.872C33.2866 30.7021 33.3195 30.5179 33.3103 30.3334C33.3011 30.1489 33.2501 29.9688 33.1612 29.8069C32.7702 29.2261 32.3386 28.6737 31.8696 28.1538C32.841 27.3261 33.601 26.2786 34.0865 25.0983C34.3275 24.573 34.2263 23.1079 34.3082 22.8573C35.407 20.5343 38.7807 18.8475 38.7807 18.8475L38.9783 18.7077C38.9783 18.7077 39.0265 19.1897 39.8651 19.2186C40.7036 19.2475 40.5109 18.9535 40.6506 18.9294C40.7904 18.9053 42.0627 19.0402 42.3133 19.0162C42.5534 18.9765 42.7774 18.8695 42.9591 18.7077C43.1741 18.3535 43.3703 17.9884 43.5471 17.6137C43.6792 17.4801 43.7927 17.3294 43.8845 17.1655C43.916 17.0635 43.9263 16.9561 43.9147 16.85C43.9031 16.7439 43.8698 16.6413 43.817 16.5486ZM30.1056 31.0166C30.2002 30.5047 30.3209 29.998 30.4671 29.4985C30.5539 29.3876 31.0021 30.2551 31.0021 30.3708C31.0021 30.4865 30.3514 30.8238 30.3514 30.8238L29.9803 31.7299L30.1056 31.0166Z" fill="#3A1908"/>
</svg>
