<svg width="48" height="48" viewBox="0 0 48 48" fill="none" xmlns="http://www.w3.org/2000/svg">
<g clip-path="url(#clip0_427_10599)">
<path d="M47.4162 13.0833C46.8302 12.7327 46.2698 12.3413 45.739 11.9118C45.739 11.9118 45.6564 8 41.1047 8C36.3775 8 34.9841 9.65657 34.5403 10.1984C34.0965 10.7403 31.3717 13.7025 29.6841 14.5179C27.9966 15.3333 22.6811 15.7978 19.146 15.2559C18.4029 15.1475 14.8162 14.4973 13.8202 14.3321C12.3792 14.1106 10.9059 14.2416 9.52657 14.714C8.17963 15.2765 6.79141 17.2944 6.53854 17.862C6.28567 18.4297 4.68586 25.087 4.68586 25.087C4.68586 25.087 3.74146 28.1266 3.18411 28.6943C2.62675 29.2619 -0.108398 29.6025 -0.108398 31.9868C-0.108398 34.371 2.42549 33.9323 3.36989 33.8962C3.89323 33.8887 4.40716 33.7559 4.86866 33.509C5.33016 33.2621 5.7258 32.9082 6.02247 32.477L6.0844 33.473C5.79332 33.8814 5.53615 34.3129 5.31546 34.7632C5.00582 35.7283 5.49092 38.0506 5.55801 38.5563C5.5666 38.8035 5.63849 39.0443 5.7668 39.2557C5.89511 39.4672 6.07554 39.6422 6.29083 39.7639C6.80689 40.0529 9.12919 40.1613 9.47496 39.9136C9.63222 39.755 9.72046 39.5408 9.72046 39.3175C9.72046 39.0942 9.63222 38.88 9.47496 38.7214C9.82588 38.7214 9.89297 39.3201 9.89297 39.3201C9.89297 39.3201 11.7095 39.4078 11.9572 39.2478C12.0278 39.2261 12.0928 39.1896 12.148 39.1406C12.2032 39.0917 12.2473 39.0314 12.2772 38.964C12.2938 38.5933 12.2231 38.2238 12.0708 37.8854C11.854 37.4726 11.0128 37.5035 10.8116 37.3281C10.6103 37.1526 10.76 36.812 10.7651 36.4456C10.7703 36.0792 10.9767 33.6898 10.9767 33.6898C11.0477 33.8412 11.1665 33.965 11.3147 34.0424C11.4629 34.1198 11.6325 34.1464 11.7973 34.1181C11.6682 33.5659 12.0966 33.344 12.1482 33.1944C12.1482 33.1376 12.1998 33.5711 12.5507 33.7878C12.6504 33.1543 12.9116 32.5571 13.3093 32.0539C13.4442 32.3818 13.4625 32.7462 13.3609 33.086C13.9544 32.8383 13.9028 31.7958 13.9544 31.6462C13.9544 31.5946 14.4705 31.9765 14.3828 32.7712C14.5672 32.6103 14.7076 32.405 14.7907 32.1748C14.8738 31.9445 14.8968 31.6968 14.8575 31.4552C15.3736 31.6978 15.1827 32.8486 15.2394 32.8744C15.5798 32.3403 15.7374 31.71 15.6884 31.0785C15.9206 31.1591 16.1183 31.3167 16.2488 31.525C16.3793 31.7334 16.4346 31.98 16.4057 32.2242C16.8186 31.7081 16.478 30.4386 16.478 30.4386C16.8046 30.7811 17.0405 31.1997 17.1644 31.6565C17.307 31.4066 17.3998 31.1315 17.4379 30.8463C17.5648 30.9534 17.669 31.0848 17.7444 31.2328C17.8197 31.3808 17.8647 31.5424 17.8765 31.7081C18.0646 31.3233 18.2234 30.9248 18.3513 30.516C18.5168 30.6384 18.6501 30.799 18.74 30.9841C18.8298 31.1692 18.8736 31.3734 18.8674 31.5791C19.3834 31.4191 19.5279 30.5831 19.5279 30.5831C19.5279 30.5831 19.9408 31.3881 19.7086 31.8836C20.493 31.8836 20.6426 30.805 20.6426 30.805C20.6426 30.805 20.7201 32.1829 21.2929 32.5751C21.2929 31.8939 21.5561 31.3365 21.649 31.3985C21.6954 31.8836 22.2889 32.8228 22.6347 32.9209C22.4991 32.7198 22.4342 32.4795 22.4501 32.2376C22.4659 31.9956 22.5617 31.7658 22.7224 31.5842C22.9218 31.777 23.0803 32.0079 23.1885 32.2633C23.2967 32.5187 23.3523 32.7932 23.352 33.0705C23.8681 32.9467 24.0538 31.8268 24.0538 31.8268C24.2012 32.3288 24.2571 32.8532 24.219 33.375C24.6882 33.1056 25.0329 32.6626 25.1789 32.1416C25.3149 32.5608 25.3606 33.004 25.313 33.4421C25.6626 33.1712 25.9378 32.8161 26.1129 32.41C26.7219 32.926 26.1646 33.6537 26.1646 33.6537L27.2741 33.0963C27.2619 33.5136 27.391 33.9228 27.6405 34.2575C27.7128 33.5917 28.1566 33.055 28.3372 33.2563C28.7055 33.9824 29.011 34.7386 29.2506 35.5167C29.2971 35.7179 30.2828 38.355 31.0775 39.2117C31.8722 40.0684 34.272 39.8568 35.0873 39.8103C35.9027 39.7639 36.3053 39.2943 35.8202 38.4066C35.3351 37.519 34.1842 37.7151 34.1842 37.7151C34.1842 37.7151 35.6086 37.5035 36.1504 38.2725C36.2435 38.3683 36.3154 38.4826 36.3615 38.6079C36.4076 38.7332 36.4269 38.8669 36.4181 39.0001C36.4094 39.1334 36.3728 39.2633 36.3107 39.3816C36.2485 39.4998 36.1623 39.6037 36.0576 39.6865C37.2393 39.5988 37.5799 37.5293 35.3763 37.1062C35.3686 36.9859 35.3686 36.8652 35.3763 36.7449C35.3763 36.5953 35.5621 34.2007 35.5621 34.2007C35.8661 34.4674 36.1964 34.7026 36.5478 34.9026C36.7198 34.4447 36.7627 33.9484 36.6717 33.4679C36.8922 33.5569 37.0885 33.6968 37.2445 33.8762C37.4006 34.0556 37.512 34.2693 37.5696 34.5C38.1528 33.7362 38.127 32.1777 38.127 32.1777L38.7256 32.9776C38.7256 32.9776 39.0765 31.4294 39.0817 31.1456C39.0869 30.8618 39.7939 31.192 40.1809 31.7907C40.3218 31.237 40.3218 30.6568 40.1809 30.1031C40.1345 29.5871 41.3266 30.4231 41.3266 30.4231C41.3266 30.4231 40.8105 28.5446 41.0995 28.524C41.3885 28.5033 41.6156 28.6478 41.7807 29.0968C41.9046 28.6736 41.5433 27.337 41.5433 27.337C41.8597 27.6202 42.1342 27.9469 42.3587 28.3072C42.5548 28.1576 42.1471 26.3358 42.1471 26.3358C42.486 26.6256 42.7334 27.0074 42.8593 27.4351C43.1638 26.8416 42.7045 24.7876 42.7045 24.7876C43.0499 25.1491 43.3294 25.5683 43.5302 26.0262C43.7443 25.1912 43.6528 24.3071 43.2722 23.5336C43.7882 23.6833 44.0101 24.5967 44.0101 24.5967C44.0101 24.5967 44.1959 23.3736 43.8708 22.8679C44.0411 22.7956 44.3869 23.3375 44.4952 23.5697C44.8771 22.6356 43.8605 20.8759 43.8605 20.8759L44.5365 21.5519C44.5565 21.0282 44.4669 20.5062 44.2733 20.0192C44.6501 20.045 44.7378 20.5353 44.7378 20.5353C44.7027 20.1201 44.5446 19.7248 44.2836 19.3999C44.5056 19.3483 44.7481 19.5031 44.9081 20.0192C45.2023 18.8735 44.103 18.0581 44.3146 17.4389C44.3146 17.2892 45.5532 17.2944 46.3789 17.0208C47.2046 16.7473 47.9271 15.1475 48.0097 14.9566C48.1489 14.6027 48.2543 14.2363 48.3245 13.8625C48.309 13.5942 48.1593 13.4909 47.4162 13.0833Z" fill="#3A1908"/>
</g>
<defs>
<clipPath id="clip0_427_10599">
<rect width="48" height="48" fill="white"/>
</clipPath>
</defs>
</svg>
